<?xml version="1.0" encoding="UTF-8"?>
<svg version="1.1" xmlns="http://www.w3.org/2000/svg&quot; width="105" height="70">
<path d="M0 0 C34.65 0 69.3 0 105 0 C105 23.1 105 46.2 105 70 C70.35 70 35.7 70 0 70 C0 46.9 0 23.8 0 0 Z " fill="#F1F1F1" transform="translate(0,0)"/>
<path d="M0 0 C2.625 2.25 2.625 2.25 4 4 C6.51896049 2.880462 8.39734655 1.68018448 10.5625 -0.0625 C15.68825317 -4.13681663 21.74598638 -3.43245839 28 -3 C33.90364844 -1.21776651 37.33351729 3.24266293 41 8 C42.37459244 10.74918489 42.28241639 13.05549735 42.375 16.125 C42.42398438 17.22070312 42.47296875 18.31640625 42.5234375 19.4453125 C41.13695602 28.86097035 33.09113353 35.71787543 26.71069336 42.28466797 C25.61237574 43.42772523 24.52948256 44.58580674 23.46264648 45.75830078 C17.99379223 51.76387718 13.39423685 56.71216737 4.90625 57.421875 C-3.60451039 56.62408341 -8.23234629 51.30823444 -13.5625 45.25 C-14.9793513 43.71533982 -16.40633436 42.19056324 -17.83372498 40.66571045 C-19.11704233 39.28323481 -20.37682422 37.8790194 -21.63500977 36.47363281 C-23.9451391 34.0573811 -26.38501629 32.0732482 -29 30 C-33.28730672 24.55396173 -33.62245957 19.89006975 -33.37890625 13.0234375 C-32.57852997 6.63692983 -28.48832857 3.12296499 -23.72265625 -0.7421875 C-15.97159618 -6.40169168 -7.92529867 -4.07980593 0 0 Z " fill="#FCFCFC" transform="translate(48,14)"/>
<path d="M0 0 C0.33 0 0.66 0 1 0 C1.00386719 1.25103516 1.00386719 1.25103516 1.0078125 2.52734375 C1.28441831 10.57657295 2.42209648 16.05164748 8 22 C9.91542125 23.70837098 11.85907661 25.38148865 13.80444336 27.05566406 C17.52967549 30.35464646 21.00381444 33.89923072 24.5 37.4375 C25.22703125 38.16904297 25.9540625 38.90058594 26.703125 39.65429688 C28.47109499 41.43389824 30.23666378 43.21580918 32 45 C29 45 29 45 27.40942383 43.73413086 C26.84763428 43.15026611 26.28584473 42.56640137 25.70703125 41.96484375 C25.08046631 41.32369629 24.45390137 40.68254883 23.80834961 40.02197266 C23.14971924 39.33409668 22.49108887 38.6462207 21.8125 37.9375 C15.85039578 31.79109169 15.85039578 31.79109169 9.4375 26.125 C3.86394614 21.34245269 -0.06452649 16.10777482 -0.9375 8.6875 C-1.13395569 5.55932086 -0.88750972 3.00652519 0 0 Z " fill="#262626" transform="translate(14,24)"/>
</svg>