<?xml version="1.0" encoding="UTF-8"?>
<svg version="1.1" xmlns="http://www.w3.org/2000/svg&quot; width="225" height="225">
<path d="M0 0 C74.25 0 148.5 0 225 0 C225 74.25 225 148.5 225 225 C150.75 225 76.5 225 0 225 C0 150.75 0 76.5 0 0 Z " fill="#FCFCFC" transform="translate(0,0)"/>
<path d="M0 0 C74.25 0 148.5 0 225 0 C225 34.98 225 69.96 225 106 C150.75 106 76.5 106 0 106 C0 71.02 0 36.04 0 0 Z " fill="#FCFCFC" transform="translate(0,119)"/>
<path d="M0 0 C74.25 0 148.5 0 225 0 C225 11.55 225 23.1 225 35 C150.75 35 76.5 35 0 35 C0 23.45 0 11.9 0 0 Z " fill="#FFFFFF" transform="translate(0,190)"/>
<path d="M0 0 C74.25 0 148.5 0 225 0 C225 11.55 225 23.1 225 35 C150.75 35 76.5 35 0 35 C0 23.45 0 11.9 0 0 Z " fill="#FFFFFF" transform="translate(0,0)"/>
<path d="M0 0 C74.25 0 148.5 0 225 0 C225 4.62 225 9.24 225 14 C150.75 14 76.5 14 0 14 C0 9.38 0 4.76 0 0 Z " fill="#040404" transform="translate(0,176)"/>
<path d="M0 0 C74.25 0 148.5 0 225 0 C225 4.62 225 9.24 225 14 C150.75 14 76.5 14 0 14 C0 9.38 0 4.76 0 0 Z " fill="#040404" transform="translate(0,35)"/>
<path d="M0 0 C74.25 0 148.5 0 225 0 C225 4.29 225 8.58 225 13 C150.75 13 76.5 13 0 13 C0 8.71 0 4.42 0 0 Z " fill="#000000" transform="translate(0,106)"/>
</svg>